# xmcd
#
# Track frame offsets:
#	150
#	15076
#	33151
#	49601
#	66493
#	82351
#	95972
#	111198
#	125777
#	143914
#	160223
#	176565
#	192240
#
# Disc length: 2815 seconds
# Revision: 0
# Processed by: cddbd v1.5.2PL0 Copyright (c) Steve Scherf et al.
# Submitted via: dBpowerAMP V12.0
#
DISCID=b80afd0d
DTITLE=Jill Johnson - Flirting With Disaster
DYEAR=2011
DGENRE=Country
TTITLE0=Flirting With Disaster
TTITLE1=What's A Little Rain
TTITLE2=In One Piece
TTITLE3=While You're Sleeping
TTITLE4=I'm Awake Now
TTITLE5=Didn't Wanna Let You Go
TTITLE6=I'm Never Far
TTITLE7=When We Had It So Good
TTITLE8=Roll My Way
TTITLE9=The Sound Of Leaving
TTITLE10=Used To Think He Was Everything
TTITLE11=Dreaming Me Away
TTITLE12=Song To Heaven
EXTD=
EXTT0=
EXTT1=
EXTT2=
EXTT3=
EXTT4=
EXTT5=
EXTT6=
EXTT7=
EXTT8=
EXTT9=
EXTT10=
EXTT11=
EXTT12=
PLAYORDER=
